<svg width="566.07" height="124.05" xmlns="http://www.w3.org/2000/svg" xml:space="preserve">
 <defs>
  <clipPath clipPathUnits="userSpaceOnUse" id="a">
   <path id="svg_1" d="m0,0l612,0l0,792l-612,0l0,-792z"/>
  </clipPath>
  <clipPath clipPathUnits="userSpaceOnUse" id="b">
   <path id="svg_2" d="m0,0l612,0l0,792l-612,0l0,-792z"/>
  </clipPath>
  <clipPath clipPathUnits="userSpaceOnUse" id="c">
   <path id="svg_3" d="m0,0l612,0l0,792l-612,0l0,-792z"/>
  </clipPath>
  <clipPath clipPathUnits="userSpaceOnUse" id="d">
   <path id="svg_4" d="m0,0l612,0l0,792l-612,0l0,-792z"/>
  </clipPath>
  <clipPath clipPathUnits="userSpaceOnUse" id="e">
   <path id="svg_5" d="m0,0l612,0l0,792l-612,0l0,-792z"/>
  </clipPath>
 </defs>
 <g>
  <title>Layer 1</title>
  <g id="svg_6" transform="matrix(3.49391, 0, 0, -3.49391, -1488.41, 2708.51)" clip-path="url(#a)">
   <path id="svg_7" fill-rule="nonzero" fill="#ffffff" d="m431.72089,754.51099l-1.082,0.512c-1.629,0.765 -2.292,1.197 -2.292,2.41c0,1.122 0.857,1.907 2.084,1.907c1.17,0 1.957,-0.438 2.554,-1.418l0.063,-0.105l1.186,0.759l-0.062,0.1c-0.853,1.381 -2.048,2.024 -3.761,2.024c-2.064,0 -3.562,-1.391 -3.562,-3.307c0,-1.894 1.158,-2.809 3.157,-3.747l1.083,-0.512c1.624,-0.753 2.449,-1.39 2.449,-2.784c0,-1.346 -1.07,-2.182 -2.792,-2.182c-1.494,0 -2.7,0.725 -3.397,2.041l-0.056,0.106l-1.293,-0.682l0.056,-0.106c0.943,-1.779 2.616,-2.758 4.709,-2.758c2.646,0 4.29,1.387 4.29,3.621c0,2.116 -1.222,3.113 -3.334,4.121"/>
  </g>
  <path id="svg_8" fill-rule="nonzero" fill="#ffffff" d="m70.19057,78.59724l-24.66702,0l0,-27.35733l-5.30376,0l0,47.57661l5.30376,0l0,-15.39767l24.66702,0l0,15.39767l5.30027,0l0,-47.57661l-5.30027,0l0,27.35733z"/>
  <g id="svg_9" transform="matrix(3.49391, 0, 0, -3.49391, -1488.41, 2708.51)" clip-path="url(#b)">
   <path id="svg_10" fill-rule="nonzero" fill="#ffffff" d="m455.3356,760.85718l-5.725,-13.931l1.538,0l0.944,2.321l6.744,0l0.925,-2.321l1.577,0l-5.745,13.931l-0.258,0zm2.938,-10.23l-5.632,0l2.833,6.979c0.931,-2.31 2.481,-6.163 2.799,-6.979"/>
  </g>
  <path id="svg_11" fill-rule="nonzero" fill="#ffffff" d="m162.47284,51.24026l-6.07941,0l-20.62107,26.15892l0,-26.15892l-5.30027,0l0,47.57661l5.30027,0l0,-14.15733l5.56231,-6.90048l16.71138,21.05781l6.42531,0l-19.78603,-24.95702l17.78751,-22.61959z"/>
  <path id="svg_12" fill-rule="nonzero" fill="#ffffff" d="m176.19133,83.34932l21.16962,0l0,-4.75172l-21.16962,0l0,-22.53574l23.71318,0l0,-4.8216l-29.01694,0l0,47.57661l29.98126,0l0,-4.8216l-24.6775,0l0,-10.64595z"/>
  <g id="svg_13" transform="matrix(3.49391, 0, 0, -3.49391, -1488.41, 2708.51)" clip-path="url(#c)">
   <path id="svg_14" fill-rule="nonzero" fill="#ffffff" d="m529.88928,754.51099l-1.082,0.512c-1.629,0.765 -2.292,1.197 -2.292,2.41c0,1.122 0.857,1.907 2.084,1.907c1.17,0 1.958,-0.438 2.554,-1.418l0.063,-0.105l1.186,0.759l-0.062,0.1c-0.853,1.381 -2.048,2.024 -3.761,2.024c-2.064,0 -3.562,-1.391 -3.562,-3.307c0,-1.894 1.157,-2.809 3.157,-3.747l1.083,-0.512c1.624,-0.753 2.449,-1.39 2.449,-2.784c0,-1.346 -1.07,-2.182 -2.793,-2.182c-1.493,0 -2.699,0.725 -3.396,2.042l-0.056,0.105l-1.293,-0.682l0.056,-0.106c0.943,-1.779 2.616,-2.759 4.709,-2.759c2.646,0 4.29,1.388 4.29,3.622c0,2.116 -1.222,3.113 -3.334,4.121"/>
  </g>
  <path id="svg_15" fill-rule="nonzero" fill="#ffffff" d="m413.18237,78.59724l-24.66702,0l0,-27.35733l-5.30376,0l0,47.57661l5.30376,0l0,-15.39767l24.66702,0l0,15.39767l5.30027,0l0,-47.57661l-5.30027,0l0,27.35733z"/>
  <g id="svg_16" transform="matrix(3.49391, 0, 0, -3.49391, -1488.41, 2708.51)" clip-path="url(#d)">
   <path id="svg_17" fill-rule="nonzero" fill="#ffffff" d="m553.50421,760.8573l-5.725,-13.931l1.537,0l0.945,2.321l6.744,0l0.924,-2.321l1.578,0l-5.745,13.931l-0.258,0zm2.938,-10.23l-5.632,0l2.832,6.979c0.932,-2.31 2.482,-6.163 2.8,-6.979"/>
   <path id="svg_18" fill-rule="nonzero" fill="#ffffff" d="m571.15479,750.34338c-1.067,-1.423 -2.606,-2.175 -4.449,-2.175c-3.123,0 -5.389,2.34 -5.389,5.566c0,3.173 2.275,5.566 5.291,5.566c1.758,0 3.169,-0.673 4.194,-2l0.071,-0.091l1.176,0.847l-0.074,0.098c-1.27,1.665 -3.119,2.546 -5.348,2.546c-3.926,0 -6.887,-2.995 -6.887,-6.966c-0.009,-1.922 0.688,-3.687 1.963,-4.968c1.282,-1.288 3.045,-1.998 4.964,-1.998c2.395,0 4.306,0.916 5.682,2.723l0.075,0.098l-1.199,0.847l-0.07,-0.093z"/>
  </g>
  <path id="svg_19" fill-rule="nonzero" fill="#ffffff" d="m533.25,73.85774l17.78751,-22.6161l-6.07941,0l-20.62107,26.15892l0,-26.15892l-5.30027,0l0,47.57311l5.30027,0l0,-14.15384l5.56231,-6.90397l16.71138,21.05781l6.42531,0l-19.78603,-24.95702z"/>
  <g id="svg_20" transform="matrix(3.4939124 0 0 -3.4939124 -1488.40635302 2708.50922672)" clip-path="url(#e)">
   <path id="svg_21" fill-rule="nonzero" fill="#55a335" d="m517.18878,761.41608l0,1.849c0.964,0.024 1.167,0.305 1.35,0.554c0.175,0.264 0.188,0.61 0.187,0.612l0,0.007c0.006,2.304 -1.448,4.503 -4.025,6.184c-2.564,1.67 -6.195,2.738 -10.21,2.736c-4.015,0.002 -7.646,-1.066 -10.207,-2.736c-2.579,-1.681 -4.031,-3.88 -4.025,-6.184l0,-0.007c0.005,0 0.012,-0.348 0.184,-0.612c0.186,-0.249 0.39,-0.53 1.351,-0.554l25.395,0l0,-1.849l-25.395,0c-1.454,-0.027 -2.481,0.673 -2.922,1.43c-0.454,0.745 -0.458,1.423 -0.462,1.585l0,0.007c0.116,6.282 7.468,10.752 16.081,10.77c8.617,-0.018 15.966,-4.488 16.084,-10.77l0,-0.007c-0.005,-0.162 -0.012,-0.838 -0.466,-1.585c-0.43,-0.744 -1.429,-1.432 -2.839,-1.432c-0.026,0 -0.052,0.002 -0.081,0.002"/>
   <path id="svg_22" fill-rule="nonzero" fill="#55a335" d="m494.4852,739.71777c-2.335,0.019 -3.802,0.207 -4.879,1.075c-1.08,0.929 -1.193,2.243 -1.197,3.663l0,0.004c0.004,0.169 0.019,0.801 0.504,1.471c0.487,0.683 1.477,1.224 2.881,1.209l25.395,0l0,-1.849l-25.395,0c-1.009,-0.016 -1.256,-0.29 -1.393,-0.456c-0.118,-0.15 -0.14,-0.318 -0.143,-0.361l0,-0.018c-0.003,-1.381 0.178,-1.971 0.536,-2.248c0.357,-0.34 1.466,-0.658 3.691,-0.64l19.04,0c2.713,-0.013 4.084,0.365 4.586,0.778c0.467,0.355 0.603,0.865 0.615,2.064c0,0.013 0,0.031 -0.002,0.05c-0.007,0.005 0.002,0.029 -0.016,0.106c-0.023,0.078 -0.058,0.178 -0.124,0.269c-0.141,0.166 -0.383,0.44 -1.395,0.456l0,1.849c1.406,0.015 2.397,-0.526 2.882,-1.209c0.428,-0.589 0.487,-1.156 0.501,-1.394c0.003,-0.006 0.003,-0.02 0.003,-0.04l0.001,-0.041c0.006,-1.273 -0.142,-2.661 -1.342,-3.578c-1.176,-0.866 -2.868,-1.143 -5.709,-1.16l-19.04,0z"/>
   <path id="svg_23" fill-rule="nonzero" fill="#55a335" d="m491.24591,748.91968c-1.526,0.004 -2.828,1.183 -2.835,2.732c0.007,1.555 1.309,2.729 2.835,2.735l26.496,0c1.523,-0.006 2.825,-1.18 2.833,-2.735c-0.008,-1.549 -1.31,-2.728 -2.833,-2.732l-26.496,0zm-0.988,2.732c0,-0.443 0.403,-0.876 0.988,-0.88l26.496,0c0.578,0.004 0.984,0.437 0.984,0.88c0,0.45 -0.406,0.881 -0.984,0.887l-26.496,0c-0.585,-0.006 -0.988,-0.437 -0.988,-0.887"/>
   <path id="svg_24" fill-rule="nonzero" fill="#55a335" d="m501.7861,757.46283c-0.266,0.304 -0.276,0.583 -1.167,0.641c-0.593,0 -0.921,-0.333 -1.063,-0.499c-0.04,-0.043 -0.038,-0.043 -0.049,-0.066c-0.06,-0.102 -0.879,-1.363 -2.676,-1.38c-1.707,-0.053 -2.6,1.236 -2.626,1.304c-0.265,0.308 -0.275,0.583 -1.167,0.641c-0.593,0 -0.92,-0.333 -1.065,-0.499c-0.036,-0.043 -0.036,-0.043 -0.046,-0.066c-0.058,-0.102 -0.877,-1.363 -2.676,-1.38c-0.511,0 -0.925,0.414 -0.925,0.921c0,0.513 0.414,0.926 0.925,0.926c0.616,0 0.942,0.325 1.078,0.477c0.034,0.039 0.031,0.039 0.022,0.022c0.056,0.094 0.86,1.425 2.687,1.452c1.715,0.055 2.595,-1.285 2.624,-1.355c0.2,-0.221 0.269,-0.542 1.169,-0.596c0.614,0 0.941,0.325 1.075,0.477c0.018,0.018 0.025,0.026 0.029,0.03c0.093,0.153 0.899,1.417 2.684,1.444c1.711,0.055 2.592,-1.282 2.62,-1.355c0.204,-0.223 0.27,-0.542 1.17,-0.596c0.612,0 0.939,0.325 1.075,0.477c0.016,0.012 0.023,0.022 0.026,0.026c0.089,0.144 0.896,1.421 2.688,1.448c1.714,0.055 2.594,-1.285 2.623,-1.355c0.2,-0.221 0.267,-0.542 1.162,-0.596c0.514,0 0.928,-0.413 0.928,-0.926c0,-0.507 -0.414,-0.921 -0.928,-0.921c-1.7,-0.053 -2.594,1.236 -2.618,1.304c-0.266,0.308 -0.275,0.583 -1.167,0.641c-0.594,0 -0.924,-0.333 -1.066,-0.499c-0.037,-0.043 -0.035,-0.048 -0.047,-0.066c-0.062,-0.097 -0.877,-1.363 -2.676,-1.38c-0.034,-0.002 -0.07,-0.005 -0.104,-0.005c-1.635,0 -2.496,1.247 -2.519,1.309"/>
   <path id="svg_25" fill-rule="nonzero" fill="#55a335" d="m516.94373,757.46283c-0.269,0.308 -0.278,0.583 -1.169,0.641c-0.593,0 -0.923,-0.333 -1.065,-0.499c-0.035,-0.043 -0.035,-0.043 -0.046,-0.066c-0.06,-0.098 -0.876,-1.363 -2.68,-1.38c-0.507,0 -0.918,0.414 -0.918,0.921c0,0.513 0.411,0.926 0.918,0.926c0.62,0 0.946,0.325 1.083,0.477c0.032,0.039 0.032,0.039 0.021,0.022c0.055,0.094 0.86,1.425 2.687,1.448c1.713,0.059 2.594,-1.281 2.624,-1.354c0.197,-0.216 0.271,-0.539 1.169,-0.593c0.51,0 0.922,-0.413 0.922,-0.926c0,-0.507 -0.412,-0.921 -0.922,-0.921c-0.035,-0.002 -0.066,-0.005 -0.098,-0.005c-1.643,0.003 -2.502,1.241 -2.526,1.309"/>
   <path id="svg_26" fill-rule="nonzero" fill="#100f0d" d="m588,759.50879c0,-0.245 -0.043,-0.468 -0.129,-0.669c-0.086,-0.201 -0.202,-0.373 -0.35,-0.516c-0.147,-0.142 -0.317,-0.253 -0.511,-0.332c-0.194,-0.078 -0.397,-0.118 -0.61,-0.118c-0.236,0 -0.452,0.042 -0.649,0.125c-0.196,0.083 -0.366,0.197 -0.507,0.343c-0.141,0.146 -0.252,0.318 -0.332,0.518c-0.08,0.199 -0.12,0.416 -0.12,0.649c0,0.245 0.043,0.468 0.129,0.669c0.086,0.201 0.202,0.373 0.349,0.516c0.148,0.142 0.319,0.253 0.514,0.332c0.195,0.078 0.401,0.118 0.616,0.118c0.213,0 0.416,-0.04 0.61,-0.118c0.194,-0.079 0.364,-0.19 0.511,-0.332c0.148,-0.143 0.264,-0.315 0.35,-0.516c0.086,-0.201 0.129,-0.424 0.129,-0.669m-0.35,0c0,0.198 -0.032,0.38 -0.096,0.546c-0.064,0.166 -0.153,0.309 -0.266,0.429c-0.114,0.119 -0.247,0.212 -0.398,0.277c-0.152,0.066 -0.315,0.099 -0.49,0.099c-0.178,0 -0.343,-0.033 -0.496,-0.099c-0.153,-0.065 -0.286,-0.158 -0.4,-0.277c-0.113,-0.12 -0.202,-0.263 -0.266,-0.429c-0.064,-0.166 -0.097,-0.348 -0.097,-0.546c0,-0.187 0.03,-0.361 0.088,-0.525c0.058,-0.163 0.142,-0.306 0.251,-0.428c0.109,-0.122 0.241,-0.219 0.396,-0.291c0.154,-0.071 0.329,-0.107 0.524,-0.107c0.175,0 0.338,0.033 0.49,0.099c0.151,0.065 0.284,0.158 0.398,0.277c0.113,0.12 0.202,0.262 0.266,0.426c0.064,0.165 0.096,0.348 0.096,0.549m-1.573,-0.935l-0.297,0l0,1.809l0.686,0c0.218,0 0.383,-0.041 0.494,-0.122c0.11,-0.082 0.166,-0.214 0.166,-0.398c0,-0.163 -0.045,-0.283 -0.136,-0.358c-0.09,-0.076 -0.202,-0.121 -0.336,-0.136l0.507,-0.795l-0.337,0l-0.468,0.773l-0.279,0l0,-0.773zm0.332,1.027c0.055,0 0.109,0.002 0.16,0.006c0.05,0.005 0.095,0.017 0.133,0.037c0.038,0.021 0.068,0.049 0.092,0.086c0.023,0.036 0.035,0.088 0.035,0.155c0,0.055 -0.013,0.099 -0.038,0.131c-0.024,0.032 -0.056,0.057 -0.093,0.074c-0.038,0.018 -0.081,0.029 -0.127,0.033c-0.047,0.004 -0.092,0.007 -0.136,0.007l-0.358,0l0,-0.529l0.332,0z"/>
  </g>
 </g>
</svg>