<svg xmlns="http://www.w3.org/2000/svg" xml:space="preserve" viewBox="-0.05 -0.03 566.07 124.05">
  <defs>
    <clipPath id="a" clipPathUnits="userSpaceOnUse">
      <path d="M0 0h612v792H0Z"/>
    </clipPath>
    <clipPath id="b" clipPathUnits="userSpaceOnUse">
      <path d="M0 0h612v792H0Z"/>
    </clipPath>
    <clipPath id="c" clipPathUnits="userSpaceOnUse">
      <path d="M0 0h612v792H0Z"/>
    </clipPath>
    <clipPath id="d" clipPathUnits="userSpaceOnUse">
      <path d="M0 0h612v792H0Z"/>
    </clipPath>
    <clipPath id="e" clipPathUnits="userSpaceOnUse">
      <path d="M0 0h612v792H0Z"/>
    </clipPath>
  </defs>
  <g clip-path="url(#a)" transform="matrix(3.4939124 0 0 -3.4939124 -1488.40635302 2708.50922672)">
    <path d="m0 0-1.082.512c-1.629.765-2.292 1.197-2.292 2.41 0 1.122.857 1.907 2.084 1.907 1.17 0 1.957-.438 2.554-1.418l.063-.105 1.186.759-.062.1C1.598 5.546.403 6.189-1.31 6.189c-2.064 0-3.562-1.391-3.562-3.307 0-1.894 1.158-2.809 3.157-3.747l1.083-.512c1.624-.753 2.449-1.39 2.449-2.784 0-1.346-1.07-2.182-2.792-2.182-1.494 0-2.7.725-3.397 2.041l-.056.106-1.293-.682.056-.106c.943-1.779 2.616-2.758 4.709-2.758 2.646 0 4.29 1.387 4.29 3.621C3.334-2.005 2.112-1.008 0 0" style="fill:#100f0d;fill-opacity:1;fill-rule:nonzero;stroke:none" transform="translate(431.7209 754.511)"/>
  </g>
  <path d="M0 0h-7.06v7.83h-1.518V-5.787h1.518v4.407H0v-4.407h1.517V7.83H0Z" style="fill:#100f0d;fill-opacity:1;fill-rule:nonzero;stroke:none" transform="matrix(3.4939124 0 0 -3.4939124 70.19056802 78.59723913)"/>
  <g clip-path="url(#b)" transform="matrix(3.4939124 0 0 -3.4939124 -1488.40635302 2708.50922672)">
    <path d="m0 0-5.725-13.931h1.538l.944 2.321h6.744l.925-2.321h1.577L.258 0Zm2.938-10.23h-5.632L.139-3.251c.931-2.31 2.481-6.163 2.799-6.979" style="fill:#100f0d;fill-opacity:1;fill-rule:nonzero;stroke:none" transform="translate(455.3356 760.8572)"/>
  </g>
  <path d="M0 0h-1.74l-5.902-7.487V0h-1.517v-13.617h1.517v4.052L-6.05-7.59l4.783-6.027H.572l-5.663 7.143z" style="fill:#100f0d;fill-opacity:1;fill-rule:nonzero;stroke:none" transform="matrix(3.4939124 0 0 -3.4939124 162.47283238 51.24026648)"/>
  <path d="M0 0h6.059v1.36H0v6.45h6.787v1.38h-8.305V-4.427h8.581v1.38H0Z" style="fill:#100f0d;fill-opacity:1;fill-rule:nonzero;stroke:none" transform="matrix(3.4939124 0 0 -3.4939124 176.19132537 83.34931901)"/>
  <g clip-path="url(#c)" transform="matrix(3.4939124 0 0 -3.4939124 -1488.40635302 2708.50922672)">
    <path d="m0 0-1.082.512c-1.629.765-2.292 1.197-2.292 2.41 0 1.122.857 1.907 2.084 1.907 1.17 0 1.958-.438 2.554-1.418l.063-.105 1.186.759-.062.1C1.598 5.546.403 6.189-1.31 6.189c-2.064 0-3.562-1.391-3.562-3.307 0-1.894 1.157-2.809 3.157-3.747l1.083-.512c1.624-.753 2.449-1.39 2.449-2.784 0-1.346-1.07-2.182-2.793-2.182-1.493 0-2.699.725-3.396 2.042l-.056.105-1.293-.682.056-.106c.943-1.779 2.616-2.759 4.709-2.759 2.646 0 4.29 1.388 4.29 3.622C3.334-2.005 2.112-1.008 0 0" style="fill:#100f0d;fill-opacity:1;fill-rule:nonzero;stroke:none" transform="translate(529.8893 754.511)"/>
  </g>
  <path d="M0 0h-7.06v7.83h-1.518V-5.787h1.518v4.407H0v-4.407h1.517V7.83H0Z" style="fill:#100f0d;fill-opacity:1;fill-rule:nonzero;stroke:none" transform="matrix(3.4939124 0 0 -3.4939124 413.18235944 78.59723913)"/>
  <g clip-path="url(#d)" transform="matrix(3.4939124 0 0 -3.4939124 -1488.40635302 2708.50922672)">
    <path d="m0 0-5.725-13.931h1.537l.945 2.321h6.744l.924-2.321h1.578L.258 0Zm2.938-10.23h-5.632L.138-3.251c.932-2.31 2.482-6.163 2.8-6.979" style="fill:#100f0d;fill-opacity:1;fill-rule:nonzero;stroke:none" transform="translate(553.5042 760.8573)"/>
    <path d="M0 0c-1.067-1.423-2.606-2.175-4.449-2.175-3.123 0-5.389 2.34-5.389 5.566 0 3.173 2.275 5.566 5.291 5.566 1.758 0 3.169-.673 4.194-2l.071-.091 1.176.847-.074.098c-1.27 1.665-3.119 2.546-5.348 2.546-3.926 0-6.887-2.995-6.887-6.966-.009-1.922.688-3.687 1.963-4.968 1.282-1.288 3.045-1.998 4.964-1.998 2.395 0 4.306.916 5.682 2.723l.075.098L.07.093Z" style="fill:#100f0d;fill-opacity:1;fill-rule:nonzero;stroke:none" transform="translate(571.1548 750.3434)"/>
  </g>
  <path d="m0 0 5.091 6.473h-1.74l-5.902-7.487v7.487h-1.517V-7.143h1.517v4.051l1.592 1.976 4.783-6.027h1.839z" style="fill:#100f0d;fill-opacity:1;fill-rule:nonzero;stroke:none" transform="matrix(3.4939124 0 0 -3.4939124 533.24996978 73.85774592)"/>
  <g clip-path="url(#e)" transform="matrix(3.4939124 0 0 -3.4939124 -1488.40635302 2708.50922672)">
    <path d="M0 0v1.849c.964.024 1.167.305 1.35.554.175.264.188.61.187.612v.007C1.543 5.326.089 7.525-2.488 9.206c-2.564 1.67-6.195 2.738-10.21 2.736-4.015.002-7.646-1.066-10.207-2.736-2.579-1.681-4.031-3.88-4.025-6.184v-.007c.005 0 .012-.348.184-.612.186-.249.39-.53 1.351-.554H0V0h-25.395c-1.454-.027-2.481.673-2.922 1.43-.454.745-.458 1.423-.462 1.585v.007c.116 6.282 7.468 10.752 16.081 10.77 8.617-.018 15.966-4.488 16.084-10.77v-.007c-.005-.162-.012-.838-.466-1.585C2.49.686 1.491-.002.081-.002.055-.002.029 0 0 0" style="fill:#55a335;fill-opacity:1;fill-rule:nonzero;stroke:none" transform="translate(517.1888 761.4161)"/>
    <path d="M0 0c-2.335.019-3.802.207-4.879 1.075-1.08.929-1.193 2.243-1.197 3.663v.004c.004.169.019.801.504 1.471.487.683 1.477 1.224 2.881 1.209h25.395V5.573H-2.691c-1.009-.016-1.256-.29-1.393-.456-.118-.15-.14-.318-.143-.361v-.018c-.003-1.381.178-1.971.536-2.248.357-.34 1.466-.658 3.691-.64h19.04c2.713-.013 4.084.365 4.586.778.467.355.603.865.615 2.064 0 .013 0 .031-.002.05-.007.005.002.029-.016.106-.023.078-.058.178-.124.269-.141.166-.383.44-1.395.456v1.849c1.406.015 2.397-.526 2.882-1.209.428-.589.487-1.156.501-1.394.003-.006.003-.02.003-.04l.001-.041c.006-1.273-.142-2.661-1.342-3.578C23.573.294 21.881.017 19.04 0Z" style="fill:#55a335;fill-opacity:1;fill-rule:nonzero;stroke:none" transform="translate(494.4852 739.7178)"/>
    <path d="M0 0c-1.526.004-2.828 1.183-2.835 2.732C-2.828 4.287-1.526 5.461 0 5.467h26.496c1.523-.006 2.825-1.18 2.833-2.735C29.321 1.183 28.019.004 26.496 0Zm-.988 2.732c0-.443.403-.876.988-.88h26.496c.578.004.984.437.984.88 0 .45-.406.881-.984.887H0c-.585-.006-.988-.437-.988-.887" style="fill:#55a335;fill-opacity:1;fill-rule:nonzero;stroke:none" transform="translate(491.2459 748.9197)"/>
    <path d="M0 0c-.266.304-.276.583-1.167.641-.593 0-.921-.333-1.063-.499-.04-.043-.038-.043-.049-.066-.06-.102-.879-1.363-2.676-1.38C-6.662-1.357-7.555-.068-7.581 0c-.265.308-.275.583-1.167.641-.593 0-.92-.333-1.065-.499-.036-.043-.036-.043-.046-.066-.058-.102-.877-1.363-2.676-1.38-.511 0-.925.414-.925.921 0 .513.414.926.925.926.616 0 .942.325 1.078.477.034.039.031.039.022.022.056.094.86 1.425 2.687 1.452 1.715.055 2.595-1.285 2.624-1.355.2-.221.269-.542 1.169-.596.614 0 .941.325 1.075.477.018.018.025.026.029.03.093.153.899 1.417 2.684 1.444 1.711.055 2.592-1.282 2.62-1.355.204-.223.27-.542 1.17-.596.612 0 .939.325 1.075.477.016.012.023.022.026.026.089.144.896 1.421 2.688 1.448 1.714.055 2.594-1.285 2.623-1.355.2-.221.267-.542 1.162-.596.514 0 .928-.413.928-.926 0-.507-.414-.921-.928-.921C8.497-1.357 7.603-.068 7.579 0c-.266.308-.275.583-1.167.641-.594 0-.924-.333-1.066-.499-.037-.043-.035-.048-.047-.066-.062-.097-.877-1.363-2.676-1.38-.034-.002-.07-.005-.104-.005C.884-1.309.023-.062 0 0" style="fill:#55a335;fill-opacity:1;fill-rule:nonzero;stroke:none" transform="translate(501.7861 757.4628)"/>
    <path d="M0 0c-.269.308-.278.583-1.169.641-.593 0-.923-.333-1.065-.499-.035-.043-.035-.043-.046-.066-.06-.098-.876-1.363-2.68-1.38-.507 0-.918.414-.918.921 0 .513.411.926.918.926.62 0 .946.325 1.083.477.032.039.032.039.021.022.055.094.86 1.425 2.687 1.448 1.713.059 2.594-1.281 2.624-1.354.197-.216.271-.539 1.169-.593.51 0 .922-.413.922-.926 0-.507-.412-.921-.922-.921-.035-.002-.066-.005-.098-.005C.883-1.306.024-.068 0 0" style="fill:#55a335;fill-opacity:1;fill-rule:nonzero;stroke:none" transform="translate(516.9437 757.4628)"/>
    <path d="M0 0c0-.245-.043-.468-.129-.669-.086-.201-.202-.373-.35-.516-.147-.142-.317-.253-.511-.332-.194-.078-.397-.118-.61-.118-.236 0-.452.042-.649.125-.196.083-.366.197-.507.343-.141.146-.252.318-.332.518-.08.199-.12.416-.12.649 0 .245.043.468.129.669.086.201.202.373.349.516.148.142.319.253.514.332.195.078.401.118.616.118.213 0 .416-.04.61-.118.194-.079.364-.19.511-.332.148-.143.264-.315.35-.516C-.043.468 0 .245 0 0m-.35 0c0 .198-.032.38-.096.546-.064.166-.153.309-.266.429-.114.119-.247.212-.398.277-.152.066-.315.099-.49.099-.178 0-.343-.033-.496-.099-.153-.065-.286-.158-.4-.277-.113-.12-.202-.263-.266-.429C-2.826.38-2.859.198-2.859 0c0-.187.03-.361.088-.525.058-.163.142-.306.251-.428.109-.122.241-.219.396-.291.154-.071.329-.107.524-.107.175 0 .338.033.49.099.151.065.284.158.398.277.113.12.202.262.266.426.064.165.096.348.096.549m-1.573-.935h-.297V.874h.686c.218 0 .383-.041.494-.122.11-.082.166-.214.166-.398 0-.163-.045-.283-.136-.358-.09-.076-.202-.121-.336-.136l.507-.795h-.337l-.468.773h-.279zm.332 1.027c.055 0 .109.002.16.006.05.005.095.017.133.037.038.021.068.049.092.086.023.036.035.088.035.155 0 .055-.013.099-.038.131-.024.032-.056.057-.093.074-.038.018-.081.029-.127.033-.047.004-.092.007-.136.007h-.358V.092Z" style="fill:#100f0d;fill-opacity:1;fill-rule:nonzero;stroke:none" transform="translate(588 759.5088)"/>
  </g>
</svg>
