<svg xmlns="http://www.w3.org/2000/svg" fill="none" viewBox="0 0 241.48 33.02">
  <path fill="#26B7C5" d="M30.444 33H7.44972c-2.66893 0-4.83251-2.2605-4.83251-5.049V11.3577H.303703C.135973 11.3577 0 11.2156 0 11.0404V9.77113c0-.17525.135972-.31731.303702-.31731H2.61721V6.8034c0-.17525.13597-.31731.3037-.31731H34.9728c.1678 0 .3037.14207.3037.31731v2.65042h2.4401c.1677 0 .3037.14206.3037.31731v1.26927c0 .1752-.136.3173-.3037.3173h-2.4401V27.951c0 2.7885-2.1636 5.049-4.8325 5.049ZM15.607 0c-.1677 0-.3037.142064-.3037.317308V1.58654c0 .17524.136.31731.3037.31731h1.2148c.5032 0 .9112.42619.9112.95192v.48185H2.85155c-.16773 0-.3037.14207-.3037.31731v1.26923c0 .17525.13597.31731.3037.31731H34.9043c.1677 0 .3037-.14206.3037-.31731V3.65493c0-.17524-.136-.31731-.3037-.31731H20.1626v-.48185c0-.52573.4079-.95192.9111-.95192h1.2148c.1677 0 .3037-.14206.3037-.31731V.317308C22.5922.142064 22.4562 0 22.2885 0H15.607Z"/>
  <path fill="#1B4D7A" d="M54.9396 9.52148c4.1185 0 7.0707 1.94212 9.1117 4.34112l-2.7335 2.4752c-2.0046-2.5894-4.2278-3.4272-6.196-3.4272-1.9681 0-3.098.8378-3.098 2.1325 0 1.2566 1.1299 1.8659 3.0251 2.2086l2.1868.3808c3.8634.6854 6.8885 2.0182 6.8885 5.6739 0 3.6938-3.1709 6.0547-7.4716 6.0547-4.483 0-7.9455-2.2848-9.7678-5.5596l3.2073-1.9802c1.6037 3.1987 4.155 4.1126 6.4876 4.1126 2.2962 0 3.6447-.99 3.6447-2.3609s-1.1663-1.9421-3.2073-2.3229l-2.1869-.3808c-4.1185-.6854-6.7062-2.2848-6.7062-5.712 0-3.4272 2.7699-5.63582 6.8156-5.63582Zm19.4626-.03808c5.1754 0 8.7108 3.7318 8.7108 9.4057v1.7517H69.5182c.1823 2.9703 2.114 5.1027 5.0662 5.1027 2.7335 0 4.155-1.5612 4.8475-3.1225l3.3166 1.9421c-1.2027 2.1324-3.3166 4.798-8.1277 4.798-5.4306 0-9.2575-4.2649-9.2575-10.0912 0-5.6358 3.754-9.7865 9.0389-9.7865Zm4.5923 8.111c-.2187-2.7798-1.9681-4.4934-4.6288-4.4934-2.8429 0-4.5194 1.7898-4.8475 4.4934h9.4763Zm10.169-4.9127h.5103c.7289-1.9802 2.1868-2.70367 4.5194-2.70367h1.9317v3.65567h-2.77c-2.4055 0-4.1185 1.3709-4.1185 4.1888v11.0051h-3.9727V10.0542h3.8998v2.6275ZM100.756 2.59082c1.275 0 2.26.91392 2.26 2.2848 0 1.33279-.985 2.28479-2.26 2.28479-1.2758 0-2.2599-.91392-2.2599-2.28479 0-1.37088.9841-2.2848 2.2599-2.2848Zm2.002 7.46388h-3.9728v18.7734h3.9728V10.0547Zm11.666-.53322c5.321 0 9.33 4.03652 9.33 9.90082 0 5.9024-4.009 9.9388-9.33 9.9388-5.358 0-9.367-4.0364-9.367-9.9388 0-5.8643 4.009-9.90082 9.367-9.90082Zm0 16.10782c3.207 0 5.321-2.5133 5.321-6.207 0-3.6938-2.114-6.169-5.321-6.169-3.244 0-5.358 2.5133-5.358 6.169 0 3.7318 2.114 6.207 5.358 6.207Zm24.853 3.1988v-3.1606h-.51c-.802 1.8278-2.515 3.4652-5.905 3.4652-3.972 0-7.034-2.856-7.034-7.8064V10.0547h3.973v10.8528c0 2.9702 1.64 4.5696 4.41 4.5696 3.134 0 4.993-2.0564 4.993-5.7882v-9.6342h3.973v18.7734h-3.9Zm13.596-19.30662c4.119 0 7.071 1.94212 9.112 4.34112l-2.734 2.4752c-2.004-2.5894-4.227-3.4272-6.196-3.4272-1.968 0-3.098.8378-3.098 2.1325 0 1.2566 1.13 1.8659 3.026 2.2086l2.186.3808c3.864.6854 6.889 2.0182 6.889 5.6739 0 3.6938-3.171 6.0547-7.472 6.0547-4.483 0-7.945-2.2848-9.768-5.5596l3.208-1.9802c1.603 3.1987 4.155 4.1126 6.487 4.1126 2.296 0 3.645-.99 3.645-2.3609s-1.166-1.9421-3.207-2.3229l-2.187-.3808c-4.119-.6854-6.706-2.2848-6.706-5.712 0-3.4272 2.77-5.63582 6.815-5.63582Zm28.678-.03808c5.175 0 8.71 3.7318 8.71 9.4057v1.7517h-13.594c.182 2.9703 2.114 5.1027 5.066 5.1027 2.733 0 4.155-1.5612 4.847-3.1225l3.317 1.9421c-1.203 2.1324-3.317 4.798-8.128 4.798-5.43 0-9.257-4.2649-9.257-10.0912 0-5.6358 3.754-9.7865 9.039-9.7865Zm4.592 8.111c-.219-2.7798-1.968-4.4934-4.629-4.4934-2.843 0-4.519 1.7898-4.847 4.4934h9.476Zm14.65-8.111c4.775 0 7.982 2.9322 7.982 7.4637V28.828h-3.936v-2.8179h-.51c-.766 1.4851-2.224 3.351-6.014 3.351-4.046 0-6.743-2.2467-6.743-5.7881 0-3.2368 2.479-5.1408 5.978-5.4835l7.216-.7997v-.6474c0-2.0563-1.421-3.7318-4.155-3.7318-2.733 0-4.337 1.6755-5.321 3.8841l-3.28-2.0182c1.385-2.3229 3.972-5.2931 8.783-5.2931Zm-1.567 16.3744c3.426 0 5.54-2.0944 5.54-5.1789v-.3427l-6.123.6854c-1.895.2285-2.916 1.0663-2.916 2.3991 0 1.447 1.276 2.4371 3.499 2.4371Zm15.272-15.8036V3.92334h3.973v6.13086h5.285v3.5034h-5.285v10.5862c0 .7616.365 1.1424 1.021 1.1424h3.244v3.5414h-4.957c-1.896 0-3.281-1.4089-3.281-3.4272V13.5576h-4.92v-3.5034h4.92Zm17.789-.53272c4.119 0 7.071 1.94212 9.112 4.34112l-2.734 2.4752c-2.004-2.5894-4.227-3.4272-6.196-3.4272-1.968 0-3.098.8378-3.098 2.1325 0 1.2566 1.13 1.8659 3.026 2.2086l2.186.3808c3.864.6854 6.889 2.0182 6.889 5.6739 0 3.6938-3.171 6.0547-7.472 6.0547-4.483 0-7.945-2.2848-9.768-5.5596l3.208-1.9802c1.603 3.1987 4.155 4.1126 6.487 4.1126 2.297 0 3.645-.99 3.645-2.3609s-1.166-1.9421-3.207-2.3229l-2.187-.3808c-4.119-.6854-6.706-2.2848-6.706-5.712 0-3.4272 2.77-5.63582 6.815-5.63582Z"/>
</svg>
